<?xml version="1.0" encoding="UTF-8"?>
<svg version="1.1" xmlns="http://www.w3.org/2000/svg" width="128" height="128">
<path d="M0 0 C42.24 0 84.48 0 128 0 C128 42.24 128 84.48 128 128 C85.76 128 43.52 128 0 128 C0 85.76 0 43.52 0 0 Z " fill="#FCFCFC" transform="translate(0,0)"/>
<path d="M0 0 C10.89 0 21.78 0 33 0 C30.03 4.455 30.03 4.455 27 9 C22.17940303 22.2406451 22.6509034 37.57433324 22.68432617 51.50048828 C22.68748131 54.23380696 22.6639292 56.96603291 22.63867188 59.69921875 C22.58881506 74.01117198 24.03822402 87.98845243 27 102 C25.02 102.495 25.02 102.495 23 103 C22.67815486 106.45983522 22.62865613 108.41577776 24.51953125 111.390625 C27.64692302 114.68054264 31.04870738 116.76892769 34.9375 119.0625 C36.34427724 119.90450324 37.74926819 120.74949905 39.15234375 121.59765625 C39.77101318 121.96383057 40.38968262 122.33000488 41.02709961 122.70727539 C43.46784479 124.30655094 45.72139868 126.17711895 48 128 C32.16 128 16.32 128 0 128 C0 85.76 0 43.52 0 0 Z " fill="#FEFEFE" transform="translate(0,0)"/>
<path d="M0 0 C9.57 0 19.14 0 29 0 C29 42.24 29 84.48 29 128 C14.48 128 -0.04 128 -15 128 C-11.79574582 125.59680936 -8.78571565 123.69318471 -5.3125 121.75 C4.79861505 116.4843017 4.79861505 116.4843017 11.0625 107.6875 C11.041875 106.800625 11.02125 105.91375 11 105 C11 104.34 11 103.68 11 103 C9.68 102.67 8.36 102.34 7 102 C7.13277344 101.28714844 7.26554687 100.57429688 7.40234375 99.83984375 C7.57894531 98.88207031 7.75554687 97.92429687 7.9375 96.9375 C8.11152344 95.99777344 8.28554687 95.05804688 8.46484375 94.08984375 C8.64144531 93.07019531 8.81804687 92.05054687 9 91 C9.17184814 90.06043457 9.34369629 89.12086914 9.52075195 88.15283203 C10.34227319 82.29591221 10.18312719 76.36673349 10.203125 70.46484375 C10.21167511 68.49856773 10.21167511 68.49856773 10.22039795 66.49256897 C10.23086401 63.72136045 10.23673438 60.95018054 10.24023438 58.17895508 C10.24569015 54.66826184 10.26967362 51.15796208 10.29820633 47.64739132 C10.32158573 44.2532185 10.32329937 40.85909267 10.328125 37.46484375 C10.3404718 36.22476059 10.3528186 34.98467743 10.36553955 33.70701599 C10.33347511 20.911422 9.29406134 9.29406134 0 0 Z " fill="#FCFCFC" transform="translate(99,0)"/>
<path d="M0 0 C1.30170135 -0.01583633 2.60340271 -0.03167267 3.94454956 -0.04798889 C5.36293903 -0.04414677 6.78132569 -0.03910737 8.19970703 -0.03295898 C9.65935665 -0.03819599 11.11900288 -0.04447275 12.5786438 -0.05174255 C15.63690113 -0.06214617 18.6946932 -0.05758798 21.75292969 -0.04296875 C25.6628274 -0.02580404 29.57125235 -0.0492452 33.48098564 -0.08445835 C36.49575449 -0.10647594 39.51017351 -0.10498017 42.52499771 -0.09669304 C43.96583799 -0.09587542 45.40670444 -0.10270259 46.84746933 -0.11746407 C59.50852019 -0.22727501 59.50852019 -0.22727501 63.42358398 2.90722656 C65.61424907 5.57204442 66.83176302 7.6390506 67.89501953 10.90844727 C68.35328125 12.25036133 68.35328125 12.25036133 68.82080078 13.61938477 C70.85753554 21.41120082 70.74339695 29.091199 70.75048828 37.10375977 C70.75548088 39.07359329 70.75548088 39.07359329 70.76057434 41.08322144 C70.76654153 43.85863059 70.76841688 46.63400872 70.76782227 49.40942383 C70.76772113 52.92909567 70.78133323 56.44856357 70.79859447 59.96818733 C70.81253643 63.36754691 70.8118073 66.7668721 70.81298828 70.16625977 C70.8201738 71.41150421 70.82735931 72.65674866 70.83476257 73.93972778 C70.8098419 83.64100907 70.51599971 93.52875936 66.58251953 102.53344727 C68.56251953 103.02844727 68.56251953 103.02844727 70.58251953 103.53344727 C71.39501953 106.15844727 71.39501953 106.15844727 71.58251953 109.53344727 C68.04700611 114.65647554 63.94245734 117.56806181 58.64501953 120.72094727 C57.95472656 121.14569336 57.26443359 121.57043945 56.55322266 122.00805664 C54.57625919 123.21297371 52.60104991 124.39934784 50.58251953 125.53344727 C49.67550293 126.06268799 48.76848633 126.59192871 47.83398438 127.13720703 C44.05006552 128.76209305 40.70219271 129.0699786 36.64892578 129.14282227 C35.51643654 129.1684726 35.51643654 129.1684726 34.36106873 129.19464111 C32.76517158 129.22287235 31.16910269 129.24254587 29.57299805 129.25415039 C27.18029818 129.28302158 24.79564255 129.37599544 22.40478516 129.47094727 C10.48522817 129.71501266 3.09826304 126.5499426 -6.41748047 119.53344727 C-7.38935303 118.83058594 -8.36122559 118.12772461 -9.36254883 117.40356445 C-12.69195622 114.94934108 -15.10778566 112.99798948 -17.41748047 109.53344727 C-17.04248047 106.34594727 -17.04248047 106.34594727 -16.41748047 103.53344727 C-14.43748047 103.03844727 -14.43748047 103.03844727 -12.41748047 102.53344727 C-12.71444824 101.90374023 -13.01141602 101.2740332 -13.31738281 100.62524414 C-18.06977058 87.2687775 -17.90755167 71.74516437 -17.80859375 57.73120117 C-17.79247935 55.03325914 -17.80858584 52.33681412 -17.82763672 49.63891602 C-17.84037675 40.40761504 -17.36699055 31.34423509 -16.14404297 22.18969727 C-15.98227066 20.91249817 -15.98227066 20.91249817 -15.81723022 19.60949707 C-14.38206095 9.97693285 -11.06654213 0.05988357 0 0 Z M-9.41748047 6.53344727 C-15.85056411 19.6378769 -14.73134116 35.16475813 -14.67822266 49.36987305 C-14.66754852 52.76182112 -14.67813863 56.15323451 -14.69091797 59.54516602 C-16.07539285 83.22353419 -16.07539285 83.22353419 -7.82373047 104.17016602 C0.29900518 108.64765759 9.54682786 109.92485197 18.58251953 111.53344727 C19.66919922 111.73067383 20.75587891 111.92790039 21.87548828 112.13110352 C24.35297636 112.49933046 26.70527651 112.69884265 29.20751953 112.72094727 C29.94228516 112.73512695 30.67705078 112.74930664 31.43408203 112.76391602 C33.5979335 112.66297094 33.5979335 112.66297094 35.37939453 111.60375977 C38.51520608 110.08033359 41.79639754 109.75155739 45.20751953 109.22094727 C51.84770883 108.06036487 58.1116942 106.7258271 63.58251953 102.53344727 C65.39686419 99.81193028 65.95448613 98.59145469 66.58251953 95.53344727 C66.7562207 94.73293945 66.92992188 93.93243164 67.10888672 93.10766602 C68.93688526 82.96964785 68.88555598 72.89835744 68.84326172 62.62573242 C68.83263755 59.56742063 68.84315465 56.50970887 68.85595703 53.45141602 C68.86505434 43.64055964 68.63208718 33.87563431 67.81689453 24.09594727 C67.72580414 22.84563721 67.72580414 22.84563721 67.63287354 21.57006836 C67.0165335 15.14645363 65.56141048 8.47734405 60.83158875 3.80308533 C57.89020589 2.14262437 55.79621518 2.14602765 52.42456055 2.12939453 C51.17969376 2.11671036 49.93482697 2.10402618 48.65223694 2.09095764 C47.29696486 2.09300924 45.94169393 2.09599739 44.58642578 2.09985352 C43.19164272 2.09529061 41.79686191 2.08998471 40.40208435 2.08396912 C37.48093525 2.07504144 34.56005958 2.07745673 31.63891602 2.08740234 C27.9017434 2.09888851 24.16551618 2.07868571 20.42846775 2.04948521 C17.54845722 2.03110762 14.66867256 2.03141871 11.78861809 2.03712273 C10.41114921 2.03727577 9.03366486 2.03124519 7.65625191 2.01883125 C5.72751197 2.00389776 3.79861631 2.01724055 1.86987305 2.03173828 C0.77385269 2.03190445 -0.32216766 2.03207062 -1.45140076 2.03224182 C-5.14103135 2.65571223 -6.77514496 3.92577215 -9.41748047 6.53344727 Z " fill="#1A1A1A" transform="translate(39.41748046875,-0.533447265625)"/>
<path d="M0 0 C9.57 0 19.14 0 29 0 C29 8.14662529 27.53190705 12.52767033 22.8125 19 C18.96442699 21.73640747 15.69028483 22.39776267 11 22 C5.26476056 19.51112251 3.22198565 15.54926672 1 10 C0 7 0 7 0 0 Z " fill="#F0EA00" transform="translate(70,47)"/>
<path d="M0 0 C3.96930989 -0.02465881 7.93859034 -0.04284023 11.90795898 -0.05493164 C13.25920386 -0.05997057 14.61044326 -0.06680177 15.96166992 -0.07543945 C17.90020434 -0.08752419 19.838778 -0.09269828 21.77734375 -0.09765625 C23.52905884 -0.10551147 23.52905884 -0.10551147 25.31616211 -0.11352539 C28 0 28 0 29 1 C29.93906807 7.10394246 27.17363077 11.97220995 24 17 C20.8947721 19.9607987 18.53806604 21.82521977 14.25 22.3125 C10.05076945 21.90872783 8.21024964 20.72173339 5 18 C1.92759443 13.62060285 -0.13892712 9.72489832 -0.0625 4.375 C-0.05347656 3.55773438 -0.04445313 2.74046875 -0.03515625 1.8984375 C-0.02355469 1.27195313 -0.01195313 0.64546875 0 0 Z " fill="#F1EC00" transform="translate(32,47)"/>
<path d="M0 0 C1.30170135 -0.01583633 2.60340271 -0.03167267 3.94454956 -0.04798889 C5.36293903 -0.04414677 6.78132569 -0.03910737 8.19970703 -0.03295898 C9.65935665 -0.03819599 11.11900288 -0.04447275 12.5786438 -0.05174255 C15.63690113 -0.06214617 18.6946932 -0.05758798 21.75292969 -0.04296875 C25.6628274 -0.02580404 29.57125235 -0.0492452 33.48098564 -0.08445835 C36.49575449 -0.10647594 39.51017351 -0.10498017 42.52499771 -0.09669304 C43.96583799 -0.09587542 45.40670444 -0.10270259 46.84746933 -0.11746407 C59.50852019 -0.22727501 59.50852019 -0.22727501 63.42358398 2.90722656 C65.61424907 5.57204442 66.83176302 7.6390506 67.89501953 10.90844727 C68.35328125 12.25036133 68.35328125 12.25036133 68.82080078 13.61938477 C70.66253652 20.66520456 70.71704664 27.47463349 70.68017578 34.71704102 C70.67876083 35.77254654 70.67734589 36.82805206 70.67588806 37.9155426 C70.67031676 41.2673737 70.65776955 44.61913656 70.64501953 47.97094727 C70.64000082 50.25154526 70.63543857 52.5321443 70.63134766 54.81274414 C70.62035673 60.3863349 70.60364729 65.95988621 70.58251953 71.53344727 C70.25251953 71.53344727 69.92251953 71.53344727 69.58251953 71.53344727 C69.55279053 70.49510742 69.55279053 70.49510742 69.52246094 69.43579102 C71.23929621 35.17232752 71.23929621 35.17232752 60.5259552 4.6111908 C55.80174856 1.99135458 49.7560794 2.82465338 44.48876953 2.86938477 C43.09541399 2.86601374 41.70206133 2.86115872 40.30871582 2.85488892 C37.39335031 2.84753081 34.47875256 2.85818696 31.56347656 2.8815918 C27.8339146 2.91008115 24.10615159 2.89367116 20.37665558 2.86372948 C17.50086001 2.84562642 14.62548818 2.85142781 11.74967957 2.86436844 C10.37501307 2.86769425 9.0003076 2.86364432 7.62568665 2.85197067 C-0.67225858 2.3953499 -0.67225858 2.3953499 -7.73120117 5.9309082 C-18.80378978 23.01991856 -14.91760698 53.65026803 -15.41748047 73.53344727 C-15.74748047 73.53344727 -16.07748047 73.53344727 -16.41748047 73.53344727 C-16.46873954 67.09630791 -16.50344526 60.65922234 -16.52734375 54.22192383 C-16.53732048 52.03798455 -16.55090668 49.85405834 -16.56835938 47.67016602 C-16.84125432 12.61119148 -16.84125432 12.61119148 -8.6857605 2.35585022 C-5.6718046 -0.06565068 -3.84019884 0.02078019 0 0 Z " fill="#0A0A0A" transform="translate(39.41748046875,-0.533447265625)"/>
<path d="M0 0 C-3.58538071 8.48293682 -15.00305384 14.32542558 -23 18 C-25.65234375 18.3984375 -25.65234375 18.3984375 -28 18 C-29.80078125 16.57421875 -29.80078125 16.57421875 -31.3125 14.6875 C-31.82425781 14.07261719 -32.33601563 13.45773438 -32.86328125 12.82421875 C-34 11 -34 11 -34 8 C-30.0782956 6.21205597 -26.58663389 5.62305004 -22.3125 5.1875 C-16.46344269 4.43950735 -12.19053448 3.00630804 -7.18359375 -0.07421875 C-4.41452665 -1.24822394 -2.83904117 -0.82327204 0 0 Z " fill="#F3F3F3" transform="translate(108,106)"/>
<path d="M0 0 C3.69494121 0.36949412 6.09900806 1.05500448 9.375 2.875 C14.71504859 5.73759915 20.58083021 6.4047414 26.48828125 7.38671875 C30 8 30 8 33 9 C32.70473074 12.44480805 31.95938703 14.05494696 29.875 16.875 C27 19 27 19 23.828125 18.9296875 C19.17115508 17.79870909 15.85122846 15.85070898 11.875 13.25 C11.18535156 12.81945312 10.49570312 12.38890625 9.78515625 11.9453125 C5.68197475 9.32492508 2.30497603 6.57503244 -1 3 C-0.67 2.01 -0.34 1.02 0 0 Z " fill="#F6F6F6" transform="translate(26,105)"/>
<path d="M0 0 C9.57 0 19.14 0 29 0 C29 8.14662529 27.53190705 12.52767033 22.8125 19 C18.96442699 21.73640747 15.69028483 22.39776267 11 22 C5.26476056 19.51112251 3.22198565 15.54926672 1 10 C0 7 0 7 0 0 Z M3 3 C3.89874277 8.70770076 3.89874277 8.70770076 6.4375 13.3125 C7.08525391 14.32763672 7.08525391 14.32763672 7.74609375 15.36328125 C8.9192863 17.14215967 8.9192863 17.14215967 11 18 C15.26694079 18.4830499 17.26092973 18.5543027 20.75 15.9375 C23.82636546 11.92113399 26 8.1964305 26 3 C18.41 3 10.82 3 3 3 Z " fill="#11110B" transform="translate(70,47)"/>
<path d="M0 0 C3.96930989 -0.02465881 7.93859034 -0.04284023 11.90795898 -0.05493164 C13.25920386 -0.05997057 14.61044326 -0.06680177 15.96166992 -0.07543945 C17.90020434 -0.08752419 19.838778 -0.09269828 21.77734375 -0.09765625 C23.52905884 -0.10551147 23.52905884 -0.10551147 25.31616211 -0.11352539 C28 0 28 0 29 1 C29.93906807 7.10394246 27.17363077 11.97220995 24 17 C20.8947721 19.9607987 18.53806604 21.82521977 14.25 22.3125 C10.05076945 21.90872783 8.21024964 20.72173339 5 18 C1.92759443 13.62060285 -0.13892712 9.72489832 -0.0625 4.375 C-0.05347656 3.55773438 -0.04445313 2.74046875 -0.03515625 1.8984375 C-0.02355469 1.27195313 -0.01195313 0.64546875 0 0 Z M3 3 C3.99415123 9.95905859 5.15611901 13.15611901 10 18 C15.92376722 18.71199693 15.92376722 18.71199693 20.875 15.75 C24.68629803 10.81773197 25 9.63478412 25 3 C17.74 3 10.48 3 3 3 Z " fill="#11100B" transform="translate(32,47)"/>
<path d="M0 0 C3.48673725 0.64647712 4.33049816 2.01677537 6.3828125 4.8515625 C6.98738281 5.66367188 7.59195313 6.47578125 8.21484375 7.3125 C9.5703125 9.4765625 9.5703125 9.4765625 9.5703125 11.4765625 C3.3003125 11.4765625 -2.9696875 11.4765625 -9.4296875 11.4765625 C-8.06585206 8.74889161 -6.77658714 6.25620104 -5.1171875 3.7265625 C-4.72917969 3.11296875 -4.34117188 2.499375 -3.94140625 1.8671875 C-2.4296875 0.4765625 -2.4296875 0.4765625 0 0 Z " fill="#F2F2F2" transform="translate(66.4296875,113.5234375)"/>
<path d="M0 0 C0.33 0 0.66 0 1 0 C1.33 3.3 1.66 6.6 2 10 C2.33 10 2.66 10 3 10 C3.02505615 10.97122803 3.0501123 11.94245605 3.07592773 12.94311523 C3.17193213 16.63541244 3.27163585 20.32760294 3.37231445 24.01977539 C3.41495018 25.60112977 3.45665493 27.18250959 3.49731445 28.76391602 C3.55679797 31.07055448 3.61940126 33.37708172 3.68359375 35.68359375 C3.70424896 36.44803802 3.72490417 37.2124823 3.7461853 38.00009155 C3.86528325 41.96868528 4.04696709 45.92271935 4.32861328 49.88330078 C4.38316177 50.66488052 4.43771027 51.44646027 4.49391174 52.25172424 C4.6024933 53.74313352 4.72036511 55.23390353 4.84873962 56.72373962 C4.97729004 58.47851332 4.99802439 60.24052507 5 62 C4.34 62.66 3.68 63.32 3 64 C0.47807618 49.28072197 -0.39020618 35.10488985 -0.1875 20.1875 C-0.17239198 18.211599 -0.15871464 16.23568653 -0.14648438 14.25976562 C-0.11404103 9.50621694 -0.0626145 4.753243 0 0 Z " fill="#505050" transform="translate(22,33)"/>
<path d="M0 0 C0.33 0 0.66 0 1 0 C1.17085066 4.22900819 1.33588552 8.45822547 1.5 12.6875 C1.54769531 13.86634766 1.59539062 15.04519531 1.64453125 16.25976562 C2.50556597 38.70817077 2.50556597 38.70817077 1.0625 47.1875 C0.88847656 48.25355469 0.71445313 49.31960937 0.53515625 50.41796875 C0 53 0 53 -1 55 C-1.99 55 -2.98 55 -4 55 C-3.79141357 54.00556885 -3.58282715 53.0111377 -3.36791992 51.98657227 C-1.10226896 40.6007667 -0.46701798 29.52412519 -0.3125 17.9375 C-0.27921093 16.18422128 -0.24471132 14.43096511 -0.20898438 12.67773438 C-0.12543802 8.45195125 -0.058025 4.2262074 0 0 Z " fill="#1D1D1D" transform="translate(108,44)"/>
<path d="M0 0 C0.66 0.33 1.32 0.66 2 1 C1.34 18.16 0.68 35.32 0 53 C-0.33 53 -0.66 53 -1 53 C-1.02540371 46.41634955 -1.04288948 39.83271179 -1.05493164 33.24902344 C-1.05995313 31.01041186 -1.06677158 28.77180355 -1.07543945 26.53320312 C-1.08760069 23.3111897 -1.09325024 20.08921973 -1.09765625 16.8671875 C-1.10539818 15.37153763 -1.10539818 15.37153763 -1.11329651 13.84567261 C-1.11367654 9.11351773 -0.99028154 4.65329527 0 0 Z " fill="#080808" transform="translate(24,20)"/>
<path d="M0 0 C3.40130722 5.66884537 3.42161098 12.57043253 3 19 C1.484375 21.23828125 1.484375 21.23828125 0 23 C-0.19635974 19.54210946 -0.38058252 16.08367803 -0.5625 12.625 C-0.61857422 11.64015625 -0.67464844 10.6553125 -0.73242188 9.640625 C-0.80493164 8.22910156 -0.80493164 8.22910156 -0.87890625 6.7890625 C-0.9260376 5.91975098 -0.97316895 5.05043945 -1.02172852 4.15478516 C-1 2 -1 2 0 0 Z " fill="#404040" transform="translate(107,12)"/>
<path d="M0 0 C4.22174141 1.50776479 5.88717524 4.15164062 8 8 C8.25 10.875 8.25 10.875 8 13 C7.34 13 6.68 13 6 13 C5.74605469 12.38511719 5.49210937 11.77023437 5.23046875 11.13671875 C4.71419922 9.92435547 4.71419922 9.92435547 4.1875 8.6875 C3.85105469 7.88699219 3.51460938 7.08648437 3.16796875 6.26171875 C2.01799296 4.03484255 0.86373039 2.65012233 -1 1 C-0.67 0.67 -0.34 0.34 0 0 Z " fill="#141414" transform="translate(99,1)"/>
<path d="M0 0 C-0.14084796 1.79206547 -0.28783701 3.58364917 -0.4375 5.375 C-0.51871094 6.37273437 -0.59992188 7.37046875 -0.68359375 8.3984375 C-1 11 -1 11 -2 13 C-2.99 13 -3.98 13 -5 13 C-4.719172 11.01926635 -4.42503386 9.04041552 -4.125 7.0625 C-3.96257812 5.96035156 -3.80015625 4.85820313 -3.6328125 3.72265625 C-3.42398438 2.82417969 -3.21515625 1.92570312 -3 1 C-1 0 -1 0 0 0 Z " fill="#272727" transform="translate(109,86)"/>
<path d="M0 0 C0.33 0 0.66 0 1 0 C1.22114415 2.79119779 1.42743301 5.5821212 1.625 8.375 C1.68945312 9.1690625 1.75390625 9.963125 1.8203125 10.78125 C1.96058587 12.85028224 1.98758237 14.92625536 2 17 C1.34 17.66 0.68 18.32 0 19 C-0.78441153 12.43507888 -1.10914408 6.53162622 0 0 Z " fill="#2F2F2F" transform="translate(25,78)"/>
<path d="M0 0 C0.66 0 1.32 0 2 0 C2 2.64 2 5.28 2 8 C1.01 8 0.02 8 -1 8 C-0.67 5.36 -0.34 2.72 0 0 Z " fill="#2D2D2D" transform="translate(25,12)"/>
</svg>
